<svg xmlns="http://www.w3.org/2000/svg" xmlns:xlink="http://www.w3.org/1999/xlink" viewBox="0 0 664 262" width="664" height="262"><path d="M 61.625,124.344 C 62.777,121.116 63.125,121.344 64.625,118.344" stroke-width="5.133" stroke="black" fill="none" stroke-linecap="round"></path><path d="M 64.625,118.344 C 67.054,115.282 66.777,115.116 69.625,112.344" stroke-width="4.166" stroke="black" fill="none" stroke-linecap="round"></path><path d="M 69.625,112.344 C 74.281,107.477 74.054,107.282 78.625,102.344" stroke-width="3.455" stroke="black" fill="none" stroke-linecap="round"></path><path d="M 78.625,102.344 C 84.969,94.210 85.281,94.477 91.625,86.344" stroke-width="2.761" stroke="black" fill="none" stroke-linecap="round"></path><path d="M 91.625,86.344 C 96.402,81.572 95.969,81.210 100.625,76.344" stroke-width="2.961" stroke="black" fill="none" stroke-linecap="round"></path><path d="M 100.625,76.344 C 106.625,68.344 106.902,68.572 112.625,60.344" stroke-width="2.622" stroke="black" fill="none" stroke-linecap="round"></path><path d="M 112.625,60.344 C 115.668,56.376 115.625,56.344 118.625,52.344" stroke-width="3.205" stroke="black" fill="none" stroke-linecap="round"></path><path d="M 118.625,52.344 C 124.155,46.405 121.168,48.876 123.625,45.344" stroke-width="3.558" stroke="black" fill="none" stroke-linecap="round"></path><path d="M 123.625,45.344 C 119.056,45.710 123.155,44.405 116.625,48.344" stroke-width="4.584" stroke="black" fill="none" stroke-linecap="round"></path><path d="M 116.625,48.344 C 114.012,53.289 113.056,52.210 111.625,58.344" stroke-width="3.680" stroke="black" fill="none" stroke-linecap="round"></path><path d="M 111.625,58.344 C 105.071,71.117 105.512,71.289 99.625,84.344" stroke-width="2.476" stroke="black" fill="none" stroke-linecap="round"></path><path d="M 99.625,84.344 C 95.209,96.875 94.571,96.617 90.625,109.344" stroke-width="2.272" stroke="black" fill="none" stroke-linecap="round"></path><path d="M 90.625,109.344 C 82.714,130.877 82.709,130.875 74.625,152.344" stroke-width="1.688" stroke="black" fill="none" stroke-linecap="round"></path><path d="M 74.625,152.344 C 69.684,165.367 69.714,165.377 64.625,178.344" stroke-width="1.976" stroke="black" fill="none" stroke-linecap="round"></path><path d="M 64.625,178.344 C 58.723,195.120 58.184,194.867 51.625,211.344" stroke-width="1.866" stroke="black" fill="none" stroke-linecap="round"></path><path d="M 51.625,211.344 C 47.870,218.987 48.223,219.120 43.625,226.344" stroke-width="2.441" stroke="black" fill="none" stroke-linecap="round"></path><path d="M 43.625,226.344 C 38.571,238.641 40.370,231.987 36.625,237.344" stroke-width="2.867" stroke="black" fill="none" stroke-linecap="round"></path><path d="M 36.625,237.344 C 34.625,228.831 34.071,235.641 34.625,220.344" stroke-width="3.657" stroke="black" fill="none" stroke-linecap="round"></path><path d="M 34.625,220.344 C 34.973,213.190 34.625,213.331 36.625,206.344" stroke-width="3.226" stroke="black" fill="none" stroke-linecap="round"></path><path d="M 36.625,206.344 C 38.590,198.628 38.473,198.690 41.625,191.344" stroke-width="3.001" stroke="black" fill="none" stroke-linecap="round"></path><path d="M 41.625,191.344 C 45.970,180.464 46.090,180.628 51.625,170.344" stroke-width="2.534" stroke="black" fill="none" stroke-linecap="round"></path><path d="M 51.625,170.344 C 55.885,163.663 55.470,163.464 60.625,157.344" stroke-width="2.734" stroke="black" fill="none" stroke-linecap="round"></path><path d="M 60.625,157.344 C 64.623,151.346 64.885,151.663 69.625,146.344" stroke-width="2.901" stroke="black" fill="none" stroke-linecap="round"></path><path d="M 69.625,146.344 C 75.161,140.546 75.123,140.846 81.625,136.344" stroke-width="2.922" stroke="black" fill="none" stroke-linecap="round"></path><path d="M 81.625,136.344 C 85.499,134.375 85.161,134.046 89.625,133.344" stroke-width="3.494" stroke="black" fill="none" stroke-linecap="round"></path><path d="M 89.625,133.344 C 95.581,131.809 95.499,131.875 101.625,131.344" stroke-width="3.397" stroke="black" fill="none" stroke-linecap="round"></path><path d="M 101.625,131.344 C 108.625,131.344 108.581,130.809 115.625,131.344" stroke-width="3.172" stroke="black" fill="none" stroke-linecap="round"></path><path d="M 115.625,131.344 C 122.125,131.344 122.125,131.344 128.625,131.344" stroke-width="3.183" stroke="black" fill="none" stroke-linecap="round"></path><path d="M 128.625,131.344 C 136.274,132.504 136.125,131.344 143.625,131.344" stroke-width="3.044" stroke="black" fill="none" stroke-linecap="round"></path><path d="M 143.625,131.344 C 155.723,129.638 155.274,129.504 166.625,125.344" stroke-width="2.452" stroke="black" fill="none" stroke-linecap="round"></path><path d="M 166.625,125.344 C 172.802,122.931 172.223,123.138 176.625,118.344" stroke-width="2.975" stroke="black" fill="none" stroke-linecap="round"></path><path d="M 176.625,118.344 C 182.859,110.324 182.802,110.931 186.625,101.344" stroke-width="2.641" stroke="black" fill="none" stroke-linecap="round"></path><path d="M 186.625,101.344 C 188.539,94.405 189.359,94.824 189.625,87.344" stroke-width="2.967" stroke="black" fill="none" stroke-linecap="round"></path><path d="M 189.625,87.344 C 190.831,81.332 190.539,81.405 190.625,75.344" stroke-width="3.133" stroke="black" fill="none" stroke-linecap="round"></path><path d="M 190.625,75.344 C 191.028,66.241 190.331,66.832 188.625,58.344" stroke-width="2.830" stroke="black" fill="none" stroke-linecap="round"></path><path d="M 188.625,58.344 C 186.721,54.555 187.528,54.741 183.625,52.344" stroke-width="3.516" stroke="black" fill="none" stroke-linecap="round"></path><path d="M 183.625,52.344 C 179.328,49.389 179.721,49.555 174.625,48.344" stroke-width="3.492" stroke="black" fill="none" stroke-linecap="round"></path><path d="M 174.625,48.344 C 169.823,47.178 170.328,47.389 165.625,48.344" stroke-width="3.620" stroke="black" fill="none" stroke-linecap="round"></path><path d="M 165.625,48.344 C 160.451,49.977 160.823,49.678 156.625,53.344" stroke-width="3.538" stroke="black" fill="none" stroke-linecap="round"></path><path d="M 156.625,53.344 C 148.084,61.393 147.951,60.977 140.625,70.344" stroke-width="2.698" stroke="black" fill="none" stroke-linecap="round"></path><path d="M 140.625,70.344 C 132.952,79.401 133.084,79.393 126.625,89.344" stroke-width="2.385" stroke="black" fill="none" stroke-linecap="round"></path><path d="M 126.625,89.344 C 115.897,107.216 115.452,106.901 105.625,125.344" stroke-width="1.801" stroke="black" fill="none" stroke-linecap="round"></path><path d="M 105.625,125.344 C 98.928,137.241 98.897,137.216 92.625,149.344" stroke-width="1.987" stroke="black" fill="none" stroke-linecap="round"></path><path d="M 92.625,149.344 C 86.438,161.253 86.428,161.241 80.625,173.344" stroke-width="2.066" stroke="black" fill="none" stroke-linecap="round"></path><path d="M 80.625,173.344 C 74.374,187.471 73.938,187.253 67.625,201.344" stroke-width="1.962" stroke="black" fill="none" stroke-linecap="round"></path><path d="M 67.625,201.344 C 65.399,206.028 65.374,205.971 62.625,210.344" stroke-width="2.798" stroke="black" fill="none" stroke-linecap="round"></path><path d="M 62.625,210.344 C 61.069,213.443 60.899,213.028 58.625,215.344" stroke-width="3.590" stroke="black" fill="none" stroke-linecap="round"></path><path d="M 58.625,215.344 C 55.427,218.345 56.569,216.943 53.625,217.344" stroke-width="4.391" stroke="black" fill="none" stroke-linecap="round"></path><path d="M 53.625,217.344 C 50.802,214.112 50.927,215.845 49.625,210.344" stroke-width="4.024" stroke="black" fill="none" stroke-linecap="round"></path><path d="M 49.625,210.344 C 48.326,205.831 48.302,206.112 48.625,201.344" stroke-width="3.770" stroke="black" fill="none" stroke-linecap="round"></path><path d="M 48.625,201.344 C 48.546,190.351 49.326,190.831 51.625,180.344" stroke-width="2.852" stroke="black" fill="none" stroke-linecap="round"></path><path d="M 51.625,180.344 C 55.367,170.888 54.546,170.851 60.625,162.344" stroke-width="2.653" stroke="black" fill="none" stroke-linecap="round"></path><path d="M 60.625,162.344 C 67.982,151.738 67.367,151.388 75.625,141.344" stroke-width="2.282" stroke="black" fill="none" stroke-linecap="round"></path><path d="M 75.625,141.344 C 79.339,133.283 80.482,134.738 85.625,128.344" stroke-width="2.660" stroke="black" fill="none" stroke-linecap="round"></path><path d="M 85.625,128.344 C 94.304,122.879 93.339,122.283 103.625,119.344" stroke-width="2.540" stroke="black" fill="none" stroke-linecap="round"></path><path d="M 103.625,119.344 C 109.080,117.848 108.804,117.379 114.625,117.344" stroke-width="3.082" stroke="black" fill="none" stroke-linecap="round"></path><path d="M 114.625,117.344 C 120.129,117.166 120.080,116.848 125.625,117.344" stroke-width="3.254" stroke="black" fill="none" stroke-linecap="round"></path><path d="M 125.625,117.344 C 135.632,117.738 135.629,117.666 145.625,118.344" stroke-width="2.685" stroke="black" fill="none" stroke-linecap="round"></path><path d="M 145.625,118.344 C 152.128,119.344 152.132,118.738 158.625,119.344" stroke-width="2.962" stroke="black" fill="none" stroke-linecap="round"></path><path d="M 158.625,119.344 C 164.784,120.382 164.128,119.344 169.625,118.344" stroke-width="3.209" stroke="black" fill="none" stroke-linecap="round"></path><path d="M 169.625,118.344 C 174.306,115.326 174.284,116.382 177.625,111.344" stroke-width="3.327" stroke="black" fill="none" stroke-linecap="round"></path><path d="M 177.625,111.344 C 179.390,108.926 179.306,109.326 179.625,106.344" stroke-width="3.936" stroke="black" fill="none" stroke-linecap="round"></path><path d="M 179.625,106.344 C 180.915,101.691 179.890,103.426 178.625,100.344" stroke-width="4.120" stroke="black" fill="none" stroke-linecap="round"></path><path d="M 178.625,100.344 C 170.764,96.970 172.415,96.691 162.625,96.344" stroke-width="3.145" stroke="black" fill="none" stroke-linecap="round"></path><path d="M 162.625,96.344 C 150.358,93.822 151.264,95.470 139.625,97.344" stroke-width="2.575" stroke="black" fill="none" stroke-linecap="round"></path><path d="M 139.625,97.344 C 117.401,104.927 118.358,104.322 98.625,117.344" stroke-width="1.739" stroke="black" fill="none" stroke-linecap="round"></path><path d="M 98.625,117.344 C 86.653,126.673 86.401,125.427 77.625,138.344" stroke-width="1.944" stroke="black" fill="none" stroke-linecap="round"></path><path d="M 77.625,138.344 C 66.592,153.844 66.153,153.173 57.625,170.344" stroke-width="1.690" stroke="black" fill="none" stroke-linecap="round"></path><path d="M 57.625,170.344 C 54.250,177.192 54.092,176.844 52.625,184.344" stroke-width="2.434" stroke="black" fill="none" stroke-linecap="round"></path><path d="M 52.625,184.344 C 50.357,190.076 51.750,188.192 52.625,192.344" stroke-width="3.300" stroke="black" fill="none" stroke-linecap="round"></path><path d="M 52.625,192.344 C 58.440,196.784 55.857,195.576 63.625,195.344" stroke-width="3.908" stroke="black" fill="none" stroke-linecap="round"></path><path d="M 63.625,195.344 C 76.352,189.247 76.440,191.784 88.625,182.344" stroke-width="2.525" stroke="black" fill="none" stroke-linecap="round"></path><path d="M 88.625,182.344 C 100.368,175.719 100.352,175.747 111.625,168.344" stroke-width="2.209" stroke="black" fill="none" stroke-linecap="round"></path><path d="M 111.625,168.344 C 129.462,156.795 129.368,156.719 146.625,144.344" stroke-width="1.752" stroke="black" fill="none" stroke-linecap="round"></path><path d="M 146.625,144.344 C 155.220,138.427 154.962,138.295 162.625,131.344" stroke-width="2.282" stroke="black" fill="none" stroke-linecap="round"></path><path d="M 162.625,131.344 C 170.841,124.776 166.720,127.427 169.625,122.344" stroke-width="2.853" stroke="black" fill="none" stroke-linecap="round"></path><path d="M 169.625,122.344 C 163.502,120.327 168.341,119.776 157.625,121.344" stroke-width="3.636" stroke="black" fill="none" stroke-linecap="round"></path><path d="M 157.625,121.344 C 137.610,126.284 137.502,124.827 117.625,131.344" stroke-width="2.033" stroke="black" fill="none" stroke-linecap="round"></path><path d="M 117.625,131.344 C 97.759,135.172 98.110,136.284 78.625,141.344" stroke-width="1.709" stroke="black" fill="none" stroke-linecap="round"></path><path d="M 78.625,141.344 C 51.167,150.313 51.259,150.172 24.625,161.344" stroke-width="1.337" stroke="black" fill="none" stroke-linecap="round"></path><path d="M 24.625,161.344 C 9.078,167.547 12.667,166.313 1.625,173.344" stroke-width="1.893" stroke="black" fill="none" stroke-linecap="round"></path><path d="M 1.625,173.344 C 4.186,176.157 0.078,174.547 6.625,175.344" stroke-width="3.396" stroke="black" fill="none" stroke-linecap="round"></path><path d="M 6.625,175.344 C 19.061,169.207 19.186,171.157 31.625,163.344" stroke-width="2.405" stroke="black" fill="none" stroke-linecap="round"></path><path d="M 31.625,163.344 C 49.309,155.728 49.061,155.207 66.625,147.344" stroke-width="1.823" stroke="black" fill="none" stroke-linecap="round"></path><path d="M 66.625,147.344 C 96.565,132.222 96.809,132.728 126.625,117.344" stroke-width="1.233" stroke="black" fill="none" stroke-linecap="round"></path><path d="M 126.625,117.344 C 145.837,107.196 146.065,107.722 165.625,98.344" stroke-width="1.459" stroke="black" fill="none" stroke-linecap="round"></path><path d="M 165.625,98.344 C 184.043,90.635 183.837,90.196 202.625,83.344" stroke-width="1.607" stroke="black" fill="none" stroke-linecap="round"></path><path d="M 202.625,83.344 C 223.570,75.195 223.543,75.135 244.625,67.344" stroke-width="1.514" stroke="black" fill="none" stroke-linecap="round"></path><path d="M 244.625,67.344 C 253.313,64.744 253.070,64.195 261.625,61.344" stroke-width="2.236" stroke="black" fill="none" stroke-linecap="round"></path></svg>